<svg width="24" height="24" viewBox="0 0 24 24" fill="none" xmlns="http://www.w3.org/2000/svg">
<path fill-rule="evenodd" clip-rule="evenodd" d="M8 1.25003L7.94513 1.25003C6.57754 1.25001 5.47522 1.24999 4.60825 1.36655C3.70814 1.48757 2.95027 1.74646 2.34835 2.34838C1.74643 2.9503 1.48754 3.70817 1.36652 4.60828C1.24996 5.47525 1.24998 6.57757 1.25 7.94516L1.25 8.00003V10L1.25 10.0549C1.24998 11.4225 1.24996 12.5248 1.36652 13.3918C1.48754 14.2919 1.74643 15.0498 2.34835 15.6517C2.95027 16.2536 3.70814 16.5125 4.60825 16.6335C5.32326 16.7296 6.19834 16.7465 7.25029 16.7494C7.25206 17.7969 7.26472 18.6632 7.35452 19.3689C7.46291 20.2206 7.69431 20.9432 8.23521 21.5335C8.30892 21.6139 8.3861 21.6911 8.46654 21.7648C9.05683 22.3057 9.77943 22.5371 10.6312 22.6455C11.4528 22.7501 12.4922 22.7501 13.7817 22.75H13.8333H16H16.0549C17.4225 22.7501 18.5248 22.7501 19.3918 22.6335C20.2919 22.5125 21.0497 22.2536 21.6517 21.6517C22.2536 21.0498 22.5125 20.2919 22.6335 19.3918C22.75 18.5248 22.75 17.4225 22.75 16.0549V16V13.8334V13.7818C22.75 12.4923 22.75 11.4528 22.6455 10.6312C22.5371 9.77946 22.3057 9.05687 21.7648 8.46657C21.6911 8.38613 21.6139 8.30895 21.5335 8.23524C20.9432 7.69434 20.2206 7.46294 19.3688 7.35455C18.6632 7.26475 17.7968 7.25209 16.7494 7.25032C16.7464 6.19837 16.7296 5.32329 16.6335 4.60828C16.5125 3.70817 16.2536 2.9503 15.6517 2.34838C15.0497 1.74646 14.2919 1.48757 13.3918 1.36655C12.5248 1.24999 11.4225 1.25001 10.0549 1.25003L10 1.25003H8ZM16.75 8.75043V10V10.0549V10.0549C16.75 11.4225 16.75 12.5248 16.6335 13.3918C16.5125 14.2919 16.2536 15.0498 15.6517 15.6517C15.0497 16.2536 14.2919 16.5125 13.3918 16.6335C12.5248 16.7501 11.4225 16.7501 10.0549 16.75H10.0549H10H8.7504C8.75246 17.7986 8.76513 18.5713 8.84252 19.1795C8.93117 19.8761 9.09387 20.2503 9.34113 20.5201C9.38535 20.5684 9.43166 20.6147 9.47992 20.6589C9.74976 20.9062 10.1239 21.0689 10.8205 21.1575C11.5364 21.2486 12.4801 21.25 13.8333 21.25H16C17.4354 21.25 18.4365 21.2484 19.1919 21.1469C19.9257 21.0482 20.3142 20.8678 20.591 20.591C20.8678 20.3143 21.0482 19.9257 21.1469 19.1919C21.2484 18.4366 21.25 17.4354 21.25 16V13.8334C21.25 12.4801 21.2486 11.5364 21.1575 10.8206C21.0688 10.1239 20.9061 9.74979 20.6589 9.47996C20.6147 9.43169 20.5683 9.38538 20.5201 9.34116C20.2502 9.0939 19.8761 8.9312 19.1795 8.84255C18.5713 8.76516 17.7986 8.75249 16.75 8.75043ZM3.40901 3.40904C3.68577 3.13228 4.07435 2.95183 4.80812 2.85318C5.56347 2.75162 6.56459 2.75003 8 2.75003H10C11.4354 2.75003 12.4365 2.75162 13.1919 2.85318C13.9257 2.95183 14.3142 3.13228 14.591 3.40904C14.8678 3.6858 15.0482 4.07438 15.1469 4.80815C15.2484 5.5635 15.25 6.56462 15.25 8.00003V10C15.25 11.4354 15.2484 12.4366 15.1469 13.1919C15.0482 13.9257 14.8678 14.3143 14.591 14.591C14.3142 14.8678 13.9257 15.0482 13.1919 15.1469C12.4365 15.2484 11.4354 15.25 10 15.25H8C6.56458 15.25 5.56347 15.2484 4.80812 15.1469C4.07435 15.0482 3.68577 14.8678 3.40901 14.591C3.13225 14.3143 2.9518 13.9257 2.85315 13.1919C2.75159 12.4366 2.75 11.4354 2.75 10V8.00003C2.75 6.56462 2.75159 5.5635 2.85315 4.80815C2.9518 4.07438 3.13225 3.6858 3.40901 3.40904Z" fill="#0D0D3D"/>
</svg>
